<?xml version="1.0" encoding="UTF-8"?>
<!DOCTYPE svg PUBLIC "-//W3C//DTD SVG 1.1//EN" "http://www.w3.org/Graphics/SVG/1.1/DTD/svg11.dtd">
<!-- Creator: CorelDRAW -->
<svg xmlns="http://www.w3.org/2000/svg" xml:space="preserve" width="5.0798mm" height="5.0798mm" version="1.1" style="shape-rendering:geometricPrecision; text-rendering:geometricPrecision; image-rendering:optimizeQuality; fill-rule:evenodd; clip-rule:evenodd"
viewBox="0 0 507.98 507.98"
 xmlns:xlink="http://www.w3.org/1999/xlink"
 xmlns:xodm="http://www.corel.com/coreldraw/odm/2003">
 <defs>
  <style type="text/css">
   <![CDATA[
    .fil0 {fill:#1F4B43}
   ]]>
  </style>
 </defs>
 <g id="Capa_x0020_1">
  <metadata id="CorelCorpID_0Corel-Layer"/>
  <g id="_2089241692688">
   <path class="fil0" d="M73.37 184.11l-67.3 179.94c-3.9,10.44 -6.08,17.05 -6.08,29.3 0,40 32.32,73.38 73.38,73.38 41.05,0 73.37,-33.38 73.37,-73.38 0,-12.25 -2.17,-18.86 -6.08,-29.3l-67.29 -179.94z"/>
   <path class="fil0" d="M434.61 184.11l-67.3 179.94c-3.9,10.44 -6.08,17.05 -6.08,29.3 0,40 32.32,73.38 73.38,73.38 41.06,0 73.38,-33.38 73.38,-73.38 0,-12.25 -2.18,-18.86 -6.08,-29.3l-67.3 -179.94z"/>
   <path class="fil0" d="M255.16 412.25l-88.35 -236.21c-5.12,-13.71 -7.98,-22.38 -7.98,-38.46 0,-52.52 42.43,-96.33 96.33,-96.33 53.89,0 96.32,43.81 96.32,96.33 0,16.08 -2.86,24.75 -7.98,38.46l-88.34 236.21z"/>
  </g>
 </g>
</svg>
