<?xml version="1.0" encoding="UTF-8"?>
<!DOCTYPE svg PUBLIC "-//W3C//DTD SVG 1.1//EN" "http://www.w3.org/Graphics/SVG/1.1/DTD/svg11.dtd">
<!-- Creator: CorelDRAW -->
<svg xmlns="http://www.w3.org/2000/svg" xml:space="preserve" width="21.1666mm" height="21.1666mm" version="1.1" style="shape-rendering:geometricPrecision; text-rendering:geometricPrecision; image-rendering:optimizeQuality; fill-rule:evenodd; clip-rule:evenodd"
viewBox="0 0 2116.66 2116.66"
 xmlns:xlink="http://www.w3.org/1999/xlink"
 xmlns:xodm="http://www.corel.com/coreldraw/odm/2003">
 <defs>
  <style type="text/css">
   <![CDATA[
    .fil0 {fill:#1F4B43}
   ]]>
  </style>
 </defs>
 <g id="Capa_x0020_1">
  <metadata id="CorelCorpID_0Corel-Layer"/>
  <g id="_2089384678832">
   <path class="fil0" d="M305.73 767.14l-280.4 749.78c-16.27,43.5 -25.35,71.04 -25.35,122.08 0,166.68 134.68,305.74 305.75,305.74 171.08,0 305.75,-139.06 305.75,-305.74 0,-51.04 -9.07,-78.58 -25.34,-122.08l-280.41 -749.78z"/>
   <path class="fil0" d="M1810.94 767.14l-280.41 749.78c-16.27,43.5 -25.34,71.04 -25.34,122.08 0,166.68 134.67,305.74 305.75,305.74 171.07,0 305.74,-139.06 305.74,-305.74 0,-51.04 -9.07,-78.58 -25.34,-122.08l-280.4 -749.78z"/>
   <path class="fil0" d="M1063.19 1717.76l-368.09 -984.25c-21.36,-57.1 -33.26,-93.25 -33.26,-160.25 0,-218.81 176.78,-401.36 401.35,-401.36 224.58,0 401.36,182.55 401.36,401.36 0,67 -11.9,103.15 -33.26,160.25l-368.1 984.25z"/>
  </g>
 </g>
</svg>
