<?xml version="1.0" encoding="UTF-8"?>
<!DOCTYPE svg PUBLIC "-//W3C//DTD SVG 1.1//EN" "http://www.w3.org/Graphics/SVG/1.1/DTD/svg11.dtd">
<!-- Creator: CorelDRAW -->
<svg xmlns="http://www.w3.org/2000/svg" xml:space="preserve" width="10.1598mm" height="10.1598mm" version="1.1" style="shape-rendering:geometricPrecision; text-rendering:geometricPrecision; image-rendering:optimizeQuality; fill-rule:evenodd; clip-rule:evenodd"
viewBox="0 0 1015.98 1015.98"
 xmlns:xlink="http://www.w3.org/1999/xlink"
 xmlns:xodm="http://www.corel.com/coreldraw/odm/2003">
 <defs>
  <style type="text/css">
   <![CDATA[
    .fil0 {fill:#1F4B43}
   ]]>
  </style>
 </defs>
 <g id="Capa_x0020_1">
  <metadata id="CorelCorpID_0Corel-Layer"/>
  <g id="_2123989722272">
   <path class="fil0" d="M146.74 368.23l-134.59 359.89c-7.81,20.88 -12.16,34.09 -12.16,58.59 0,80.01 64.64,146.76 146.75,146.76 82.12,0 146.76,-66.75 146.76,-146.76 0,-24.5 -4.35,-37.71 -12.16,-58.59l-134.6 -359.89z"/>
   <path class="fil0" d="M869.23 368.23l-134.59 359.89c-7.81,20.88 -12.17,34.09 -12.17,58.59 0,80.01 64.65,146.76 146.76,146.76 82.11,0 146.76,-66.75 146.76,-146.76 0,-24.5 -4.36,-37.71 -12.17,-58.59l-134.59 -359.89z"/>
   <path class="fil0" d="M510.32 824.52l-176.68 -472.44c-10.25,-27.41 -15.97,-44.75 -15.97,-76.91 0,-105.03 84.86,-192.65 192.65,-192.65 107.79,0 192.65,87.62 192.65,192.65 0,32.16 -5.72,49.5 -15.97,76.91l-176.68 472.44z"/>
  </g>
 </g>
</svg>
