<?xml version="1.0" encoding="UTF-8"?>
<svg version="1.1" xmlns="http://www.w3.org/2000/svg" width="61" height="61">
<path d="M0 0 C3.10352458 1.60923497 5.21701424 3.00347267 7.375 5.75 C9.76388375 14.34998148 6.27267805 21.46561179 3.0625 29.375 C2.59392578 30.56222656 2.12535156 31.74945313 1.64257812 32.97265625 C-1.6838513 41.36770261 -1.6838513 41.36770261 -3 44 C-3.66 44 -4.32 44 -5 44 C-6.41287178 40.2672654 -7.81844694 36.531871 -9.2175293 32.79394531 C-9.69375638 31.52465238 -10.17191647 30.25608286 -10.65209961 28.98828125 C-11.34485443 27.15819999 -12.02992225 25.32521483 -12.71484375 23.4921875 C-13.12855225 22.39245605 -13.54226074 21.29272461 -13.96850586 20.15966797 C-15.8298344 14.4580552 -16.5415228 10.56714519 -14 5 C-9.8548004 0.20711297 -6.29492342 -0.85414388 0 0 Z M-8 10 C-7.98617135 12.05714832 -7.98617135 12.05714832 -7 14 C-5.0162233 15.28436734 -5.0162233 15.28436734 -3 16 C-2.01 15.34 -1.02 14.68 0 14 C-0.33 12.02 -0.66 10.04 -1 8 C-4.95457848 7.65176193 -4.95457848 7.65176193 -8 10 Z " fill="#E93035" transform="translate(34,5)"/>
<path d="M0 0 C3.93137853 1.96568926 4.74997067 7.74119348 6.1875 11.6875 C6.56841797 12.68201172 6.94933594 13.67652344 7.34179688 14.70117188 C10.73631852 23.96063835 10.73631852 23.96063835 9 29 C6.75613601 32.19319107 5.35320104 32.90367244 1.5625 33.9375 C-2.46162581 34.0080987 -3.96581396 33.60073089 -7 31 C-9.1817023 27.77487487 -9.00894263 26.06818756 -8.5 22.1875 C-3.78125 3.78125 -3.78125 3.78125 0 0 Z " fill="#FCFCFC" transform="translate(51,22)"/>
<path d="M0 0 C0.66 0 1.32 0 2 0 C3.3831725 3.48921354 4.72604929 6.99265355 6.0625 10.5 C6.45244141 11.48226562 6.84238281 12.46453125 7.24414062 13.4765625 C9.51839723 19.51441189 10.62221132 23.68342494 9 30 C6.36792327 33.00808769 4.90370799 33.88934188 0.9375 34.375 C-1.9255224 34.00950778 -3.62740741 33.60997354 -6 32 C-8.52136886 28.21794671 -8.5916846 25.37269352 -8 21 C-6.90856329 17.23060519 -5.48237782 13.63082405 -4 10 C-3.6184375 9.03449219 -3.236875 8.06898437 -2.84375 7.07421875 C-1.90783825 4.71104158 -0.95980013 2.35355245 0 0 Z " fill="#FCFCFC" transform="translate(8,22)"/>
</svg>
